<?xml version="1.0" encoding="UTF-8"?>
<svg width="32" height="32" viewBox="0 0 32 32" fill="none" xmlns="http://www.w3.org/2000/svg">
    <!-- Фоновый градиент -->
    <defs>
        <linearGradient id="bgGradient" x1="0" y1="0" x2="32" y2="32">
            <stop offset="0%" stop-color="#667eea"/>
            <stop offset="100%" stop-color="#764ba2"/>
        </linearGradient>
        <!-- Свечение -->
        <filter id="glow">
            <feGaussianBlur stdDeviation="0.5" result="blur"/>
            <feComposite in="SourceGraphic" in2="blur" operator="over"/>
        </filter>
    </defs>

    <!-- Основной фон -->
    <rect width="32" height="32" rx="8" fill="url(#bgGradient)"/>

    <!-- Реалистичный QR-паттерн -->
    <g filter="url(#glow)" opacity="0.9">
        <!-- Позиционирующие квадраты -->
        <path d="M6 6h8v8h-8z" fill="white"/>
        <path d="M8 8h4v4h-4z" fill="url(#bgGradient)"/>
        
        <path d="M18 6h8v8h-8z" fill="white"/>
        <path d="M20 8h4v4h-4z" fill="url(#bgGradient)"/>
        
        <path d="M6 18h8v8h-8z" fill="white"/>
        <path d="M8 20h4v4h-4z" fill="url(#bgGradient)"/>
        
        <!-- Данные QR-кода -->
        <rect x="16" y="16" width="2" height="2" fill="white"/>
        <rect x="18" y="18" width="2" height="2" fill="white"/>
        <rect x="20" y="20" width="2" height="2" fill="white"/>
        <rect x="22" y="16" width="2" height="2" fill="white"/>
        <rect x="16" y="22" width="2" height="2" fill="white"/>
        <rect x="22" y="22" width="2" height="2" fill="white"/>
    </g>

    <!-- Тонкие линии сетки -->
    <g opacity="0.2" stroke="white" stroke-width="0.2">
        <path d="M8 0v32"/>
        <path d="M16 0v32"/>
        <path d="M24 0v32"/>
        <path d="M0 8h32"/>
        <path d="M0 16h32"/>
        <path d="M0 24h32"/>
    </g>

    <!-- Анимация свечения -->
    <style>
        @keyframes glowPulse {
            0% { filter: brightness(1); }
            50% { filter: brightness(1.2); }
            100% { filter: brightness(1); }
        }
        svg { animation: glowPulse 3s infinite; }
    </style>
</svg> 